<svg xmlns="http://www.w3.org/2000/svg" width="97" height="97" viewBox="0 0 97 97">
  <defs>
    <style>
      .cls-1 {
        fill: #46b814;
        fill-rule: evenodd;
      }
    </style>
  </defs>
  <path id="Forma_1" data-name="Forma 1" class="cls-1" d="M48.5,0A48.5,48.5,0,1,0,97,48.5,48.557,48.557,0,0,0,48.5,0Zm0,86.683A38.181,38.181,0,1,1,86.682,48.5,38.225,38.225,0,0,1,48.5,86.681ZM73.777,47h-21.8V20.795a3.993,3.993,0,0,0-7.987,0V51a3.994,3.994,0,0,0,3.993,3.994H73.777A3.994,3.994,0,1,0,73.777,47Z"/>
</svg>
