<svg xmlns="http://www.w3.org/2000/svg" width="10.994" height="8.994" viewBox="0 0 10.994 8.994">
  <g id="checked_4_" data-name="checked (4)" transform="translate(-418 -2051.006)">
    <g id="checked_4_2" data-name="checked (4)" transform="translate(418 2051)">
      <path id="Forma_1" data-name="Forma 1" d="M.127,4.953a.454.454,0,0,1,0-.63l.592-.63a.392.392,0,0,1,.592,0l.042.045L3.679,6.392a.2.2,0,0,0,.3,0L9.641.142h.042a.392.392,0,0,1,.592,0l.592.63a.454.454,0,0,1,0,.63h0L4.1,8.865a.392.392,0,0,1-.592,0L.211,5.088Z"/>
    </g>
    <path id="Color_Overlay" data-name="Color Overlay" d="M421.51,2059.865l-3.3-3.777-.085-.135a.453.453,0,0,1,0-.629l.592-.63a.392.392,0,0,1,.592,0l.042.045,2.326,2.653a.2.2,0,0,0,.3,0l5.665-6.25h.042a.392.392,0,0,1,.592,0l.592.63a.453.453,0,0,1,0,.629l-6.765,7.465a.392.392,0,0,1-.592,0Z" fill="#26650a"/>
  </g>
</svg>
